<svg xmlns="http://www.w3.org/2000/svg" xmlns:xlink="http://www.w3.org/1999/xlink" version="1.1" x="0px" y="0px" viewBox="0 0 64 80" enable-background="new 0 0 64 64" xml:space="preserve"><g><path d="M12.006,17.496c-1.654,0-3,1.346-3,3s1.346,3,3,3s3-1.346,3-3S13.66,17.496,12.006,17.496z M12.006,21.496   c-0.552,0-1-0.448-1-1s0.448-1,1-1s1,0.448,1,1S12.558,21.496,12.006,21.496z"/><path d="M29.453,18.602c-0.494-0.246-1.094-0.047-1.342,0.447l-1,2c-0.247,0.494-0.047,1.095,0.447,1.342   c0.144,0.071,0.296,0.105,0.446,0.105c0.367,0,0.72-0.202,0.896-0.553l1-2C30.147,19.449,29.947,18.849,29.453,18.602z"/><path d="M33.453,18.602c-0.493-0.246-1.094-0.047-1.342,0.447l-1,2c-0.247,0.494-0.047,1.095,0.447,1.342   c0.144,0.071,0.296,0.105,0.446,0.105c0.367,0,0.72-0.202,0.896-0.553l1-2C34.147,19.449,33.947,18.849,33.453,18.602z"/><path d="M37.453,18.602c-0.494-0.246-1.094-0.047-1.342,0.447l-1,2c-0.247,0.494-0.047,1.095,0.447,1.342   c0.144,0.071,0.296,0.105,0.446,0.105c0.367,0,0.72-0.202,0.896-0.553l1-2C38.147,19.449,37.947,18.849,37.453,18.602z"/><path d="M12.006,31.498c-1.654,0-3,1.346-3,3s1.346,3,3,3s3-1.346,3-3S13.66,31.498,12.006,31.498z M12.006,35.498   c-0.552,0-1-0.448-1-1s0.448-1,1-1s1,0.448,1,1S12.558,35.498,12.006,35.498z"/><path d="M29.453,32.604c-0.494-0.245-1.094-0.047-1.342,0.447l-1,2c-0.247,0.494-0.047,1.095,0.447,1.342   c0.144,0.071,0.296,0.105,0.446,0.105c0.367,0,0.72-0.202,0.896-0.553l1-2C30.147,33.451,29.947,32.851,29.453,32.604z"/><path d="M33.453,32.604c-0.493-0.245-1.094-0.047-1.342,0.447l-1,2c-0.247,0.494-0.047,1.095,0.447,1.342   c0.144,0.071,0.296,0.105,0.446,0.105c0.367,0,0.72-0.202,0.896-0.553l1-2C34.147,33.451,33.947,32.851,33.453,32.604z"/><path d="M37.453,32.604c-0.494-0.245-1.094-0.047-1.342,0.447l-1,2c-0.247,0.494-0.047,1.095,0.447,1.342   c0.144,0.071,0.296,0.105,0.446,0.105c0.367,0,0.72-0.202,0.896-0.553l1-2C38.147,33.451,37.947,32.851,37.453,32.604z"/><path d="M12.006,51.5c1.654,0,3-1.346,3-3s-1.346-3-3-3s-3,1.346-3,3S10.352,51.5,12.006,51.5z M12.006,47.5c0.552,0,1,0.448,1,1   s-0.448,1-1,1s-1-0.448-1-1S11.454,47.5,12.006,47.5z"/><path d="M27.559,50.395c0.144,0.071,0.296,0.105,0.446,0.105c0.367,0,0.72-0.202,0.896-0.553l1-2   c0.247-0.494,0.047-1.095-0.447-1.342c-0.494-0.245-1.094-0.047-1.342,0.447l-1,2C26.864,49.547,27.064,50.147,27.559,50.395z"/><path d="M31.559,50.395c0.144,0.071,0.296,0.105,0.446,0.105c0.367,0,0.72-0.202,0.896-0.553l1-2   c0.247-0.494,0.047-1.095-0.447-1.342c-0.493-0.245-1.094-0.047-1.342,0.447l-1,2C30.864,49.547,31.064,50.147,31.559,50.395z"/><path d="M35.559,50.395c0.144,0.071,0.296,0.105,0.446,0.105c0.367,0,0.72-0.202,0.896-0.553l1-2   c0.247-0.494,0.047-1.095-0.447-1.342c-0.494-0.245-1.094-0.047-1.342,0.447l-1,2C34.864,49.547,35.064,50.147,35.559,50.395z"/><path d="M60.398,17.003c-0.001-0.001-0.002,0-0.003-0.001c-0.061-0.025-0.129-0.027-0.194-0.041   c-0.066-0.015-0.133-0.04-0.199-0.041c0,0-0.001,0-0.002,0c-0.02,0-0.035,0.01-0.055,0.011c-0.112,0.007-0.223,0.023-0.325,0.065   c-0.048,0.021-0.086,0.057-0.13,0.083c-0.065,0.04-0.134,0.073-0.189,0.128c-0.053,0.052-0.086,0.119-0.126,0.181   c-0.03,0.046-0.07,0.081-0.093,0.133c-0.001,0.002-0.001,0.005-0.002,0.007c-0.014,0.033-0.012,0.072-0.022,0.107   C59.029,17.729,59,17.823,59,17.918c0,0.001,0,0.001,0,0.002v3.584h-2V17.92c0-0.002-0.001-0.004-0.001-0.006   c0-0.06-0.024-0.118-0.036-0.178c-0.014-0.072-0.018-0.147-0.046-0.213c-0.001-0.001,0-0.003-0.001-0.004   c-0.013-0.03-0.038-0.049-0.054-0.077c-0.048-0.085-0.097-0.169-0.166-0.237c-0.052-0.051-0.116-0.081-0.177-0.119   c-0.048-0.03-0.089-0.068-0.141-0.09c-0.106-0.044-0.221-0.063-0.336-0.067C56.027,16.928,56.016,16.92,56,16.92   c-0.001,0-0.001,0-0.002,0c-0.072,0.001-0.143,0.027-0.215,0.044c-0.06,0.014-0.124,0.015-0.18,0.039   c-0.001,0.001-0.003,0-0.004,0.001c-2.187,0.955-3.6,3.114-3.6,5.5c0,2.216,1.21,4.149,3.001,5.188v19.82   c0,0.002-0.001,0.003-0.001,0.005c0,1.654,1.346,3,3,3s3-1.346,3-3c0-0.002-0.001-0.003-0.001-0.005v-19.82   C62.79,26.653,64,24.72,64,22.504C64,20.115,62.586,17.956,60.398,17.003z M59,47.52c-0.002,0.551-0.449,0.998-1,0.998   s-0.998-0.447-1-0.998c0,0,0.001-0.001,0.001-0.002V28.414c0.325,0.055,0.658,0.09,0.999,0.09s0.674-0.035,0.999-0.09v19.104   C58.999,47.519,59,47.52,59,47.52z M58,26.504c-2.206,0-4-1.794-4-4c0-0.994,0.368-1.93,1-2.646v2.646c0,0.553,0.447,1,1,1h4   c0.553,0,1-0.447,1-1c0-0.019-0.01-0.034-0.011-0.053C60.99,22.433,61,22.417,61,22.398v-2.542c0.632,0.717,1,1.652,1,2.647   C62,24.71,60.206,26.504,58,26.504z"/><path d="M50.962,22.288c-0.011-0.048-0.006-0.097-0.023-0.144l-1.5-4c-0.003-0.007-0.009-0.011-0.011-0.018   c-0.028-0.071-0.076-0.129-0.119-0.19c-0.031-0.046-0.055-0.099-0.093-0.138c-0.044-0.045-0.102-0.073-0.154-0.109   s-0.099-0.081-0.157-0.106c-0.053-0.022-0.112-0.026-0.169-0.04c-0.07-0.017-0.138-0.041-0.212-0.043   c-0.008,0-0.014-0.004-0.021-0.004h-1c-0.008,0-0.014,0.004-0.021,0.004c-0.075,0.002-0.145,0.026-0.217,0.044   c-0.055,0.014-0.112,0.017-0.163,0.039c-0.062,0.026-0.11,0.072-0.164,0.11c-0.05,0.035-0.105,0.062-0.148,0.105   c-0.039,0.039-0.062,0.093-0.094,0.14c-0.043,0.061-0.09,0.118-0.118,0.188c-0.002,0.007-0.008,0.011-0.011,0.018l-1.5,4   c-0.018,0.047-0.013,0.096-0.023,0.144c-0.016,0.076-0.038,0.15-0.036,0.229c0.002,0.064,0.022,0.123,0.036,0.185   c0.014,0.064,0.019,0.128,0.045,0.188c0.032,0.074,0.084,0.135,0.132,0.199c0.028,0.037,0.042,0.08,0.076,0.114l0.019,0.019   c0,0,0.001,0,0.001,0.001l1.687,1.688v9.588h-0.999c-0.553,0-1,0.447-1,1v12.015c0,0.002-0.001,0.003-0.001,0.005   c0,1.654,1.346,3,3,3s3-1.346,3-3c0-0.002-0.001-0.003-0.001-0.005V35.498c0-0.553-0.447-1-1-1h-0.999V24.91l1.688-1.688   l0.001-0.001l0.019-0.019c0.034-0.034,0.048-0.077,0.076-0.114c0.048-0.064,0.1-0.125,0.132-0.199   c0.026-0.061,0.031-0.124,0.045-0.188c0.014-0.062,0.034-0.12,0.036-0.185C51,22.438,50.978,22.364,50.962,22.288z M48.001,48.518   c-0.551,0-0.998-0.447-0.999-0.998c0,0,0-0.001,0-0.002v-11.02H49v11.02c0,0.001,0,0.002,0,0.002   C48.999,48.07,48.552,48.518,48.001,48.518z M48.001,23.082l-0.837-0.837l0.838-2.233l0.837,2.232L48.001,23.082z"/><path d="M41.708,12.794l-5-5c-0.092-0.093-0.203-0.166-0.326-0.217C36.26,7.526,36.13,7.5,36,7.5H1.001c0,0,0,0-0.001,0   c-0.13,0-0.26,0.026-0.382,0.077c-0.113,0.047-0.212,0.116-0.3,0.199C0.311,7.783,0.301,7.785,0.293,7.793   C0.275,7.811,0.27,7.833,0.254,7.852C0.185,7.932,0.12,8.017,0.078,8.116C0.026,8.24,0,8.372,0.001,8.505V50.5   c0,0.13,0.026,0.26,0.077,0.382c0.051,0.123,0.124,0.234,0.217,0.326l4.998,4.998c0.092,0.093,0.203,0.166,0.326,0.217   C5.741,56.474,5.871,56.5,6.001,56.5h35.001c0.553,0,1-0.447,1-1v-14V27.502V27.5V13.502c0-0.13-0.026-0.26-0.077-0.382   C41.874,12.997,41.801,12.886,41.708,12.794z M35.586,9.5l3.002,3.002H6.416L3.414,9.5H35.586z M7.001,26.5V14.502h33.001V26.5   H7.001z M5.001,13.915v11.171l-3-3V10.915L5.001,13.915z M5.001,27.914v11.172l-3-3V24.914L5.001,27.914z M2.001,38.914l3,3v11.172   l-3-3V38.914z M7.001,28.502h33.001V40.5H7.001V28.502z M40.002,54.5H7.001v-12h33.001V54.5z"/></g><text x="0" y="79" fill="#000000" font-size="5px" font-weight="bold" font-family="'Helvetica Neue', Helvetica, Arial-Unicode, Arial, Sans-serif">Created by lastspark</text><text x="0" y="84" fill="#000000" font-size="5px" font-weight="bold" font-family="'Helvetica Neue', Helvetica, Arial-Unicode, Arial, Sans-serif">from the Noun Project</text></svg>