<svg xmlns="http://www.w3.org/2000/svg" xmlns:xlink="http://www.w3.org/1999/xlink" version="1.1" x="0px" y="0px" viewBox="0 0 100 125" style="enable-background:new 0 0 100 100;" xml:space="preserve"><g><g><g><g><path d="M50,41.2c-0.6,0-1.1-0.5-1.1-1.1v-9.6c0-0.6,0.5-1.1,1.1-1.1c0.6,0,1.1,0.5,1.1,1.1v9.6      C51.1,40.7,50.6,41.2,50,41.2z"/></g><g><path d="M50,54.8c-1.8,0-3.5-0.4-5.1-1.3c-1-0.5-1.8-1.1-2.5-1.8c-0.4-0.4-0.4-1.2,0-1.6      c0.4-0.4,1.2-0.4,1.6,0c0.6,0.6,1.2,1,2,1.4c2.5,1.3,5.6,1.3,8.1,0c0.8-0.4,1.4-0.9,2-1.4c0.2-0.2,0.6-0.3,0.9-0.3l24.7,2      l-9-21.8c-2.1-1-13.3-5.5-21.9,1.4c-0.5,0.4-1.2,0.3-1.6-0.2c-0.4-0.5-0.3-1.2,0.2-1.6C60,21,73.4,27.8,74,28.1      c0.2,0.1,0.4,0.3,0.5,0.6l9.9,23.9c0.2,0.4,0.1,0.8-0.1,1.1c-0.2,0.3-0.6,0.5-1,0.5l-26-2.1c-0.6,0.6-1.3,1.1-2.1,1.5      C53.5,54.4,51.8,54.8,50,54.8z"/></g><g><path d="M50,31.5c-0.2,0-0.5-0.1-0.7-0.2c-1.1-0.9-2.3-1.6-3.6-2.2c-0.1,0-5.8-2.5-11.8-1.2      c-0.6,0.1-1.2-0.2-1.3-0.9c-0.1-0.6,0.2-1.2,0.9-1.3c6.8-1.5,13,1.2,13.3,1.3c1.4,0.7,2.8,1.5,4,2.5c0.5,0.4,0.6,1.1,0.2,1.6      C50.7,31.4,50.3,31.5,50,31.5z"/></g><g><path d="M16.6,54.2c-0.4,0-0.7-0.2-0.9-0.5c-0.2-0.3-0.3-0.7-0.1-1.1l9.9-23.9c0.1-0.2,0.3-0.4,0.5-0.6      c0.1-0.1,3.1-1.6,7.4-2.4c0.6-0.1,1.2,0.3,1.3,0.9c0.1,0.6-0.3,1.2-0.9,1.3c-3.1,0.6-5.5,1.6-6.4,2l-9,21.8l24.7-2      c0.6,0,1.2,0.4,1.2,1c0,0.6-0.4,1.2-1,1.2L16.6,54.2C16.7,54.2,16.7,54.2,16.6,54.2z"/></g><g><path d="M50,49.5c-0.2,0-0.4-0.1-0.6-0.2c-0.5-0.3-0.7-1-0.3-1.6c5.1-7.8,13.2-4.9,20.9-2.1      c1.6,0.6,3.3,1.2,5,1.7c0.6,0.2,0.9,0.8,0.8,1.4c-0.2,0.6-0.8,0.9-1.4,0.8c-1.7-0.5-3.4-1.1-5.1-1.7c-7.6-2.7-14.1-5-18.3,1.3      C50.7,49.3,50.4,49.5,50,49.5z"/></g><g><path d="M24.5,49.7c-0.5,0-0.9-0.3-1.1-0.8c-0.2-0.6,0.2-1.2,0.8-1.4c1.9-0.5,3.8-1.2,5.8-1.9      c7.8-2.8,15.8-5.6,20.9,2.1c0.3,0.5,0.2,1.2-0.3,1.6c-0.5,0.3-1.2,0.2-1.6-0.3c-4.2-6.3-10.7-4-18.3-1.3c-1.9,0.7-3.9,1.4-5.9,2      C24.7,49.7,24.6,49.7,24.5,49.7z"/></g></g></g><g><g><path d="M49.9,22.1c-0.6,0-1.1-0.5-1.1-1.1V9.7c0-0.6,0.5-1.1,1.1-1.1S51,9,51,9.7v11.3     C51,21.6,50.5,22.1,49.9,22.1z"/></g><g><path d="M56.1,22.1c-0.1,0-0.3,0-0.4-0.1c-0.6-0.2-0.9-0.9-0.7-1.4L58.8,10c0.2-0.6,0.9-0.9,1.4-0.7     c0.6,0.2,0.9,0.9,0.7,1.4l-3.8,10.6C57,21.8,56.5,22.1,56.1,22.1z"/></g><g><path d="M43.9,22.1c-0.5,0-0.9-0.3-1.1-0.7L39,10.7c-0.2-0.6,0.1-1.2,0.7-1.4c0.6-0.2,1.2,0.1,1.4,0.7L45,20.6     c0.2,0.6-0.1,1.2-0.7,1.4C44.2,22.1,44,22.1,43.9,22.1z"/></g></g><g><g><path d="M86,65.1H14c-4.1,0-7.4-3.3-7.4-7.4V7.4C6.5,3.3,9.9,0,14,0H86c4.1,0,7.4,3.3,7.4,7.4v50.3     C93.5,61.8,90.1,65.1,86,65.1z M14,2.3c-2.9,0-5.2,2.3-5.2,5.2v50.3c0,2.9,2.3,5.2,5.2,5.2H86c2.9,0,5.2-2.3,5.2-5.2V7.4     c0-2.9-2.3-5.2-5.2-5.2H14z"/></g><g><path d="M75.5,74.9H24.5c-0.4,0-0.7-0.2-0.9-0.5c-0.2-0.3-0.3-0.7-0.1-1l3.8-9.7c0.2-0.6,0.9-0.9,1.5-0.6     c0.6,0.2,0.9,0.9,0.6,1.5l-3.2,8.2h47.6l-3.2-8.2c-0.2-0.6,0.1-1.2,0.6-1.5c0.6-0.2,1.2,0.1,1.5,0.6l3.8,9.7     c0.1,0.3,0.1,0.7-0.1,1C76.2,74.7,75.8,74.9,75.5,74.9z"/></g><g><path d="M90.4,100H9.6c-1.5,0-2.8-0.8-3.6-2c-0.7-1.3-0.8-2.8-0.1-4.1l7.4-13.3c0.2-0.4,0.6-0.6,1-0.6h71.2     c0.4,0,0.8,0.2,1,0.6L94,93.9c0.7,1.3,0.7,2.8-0.1,4.1C93.2,99.2,91.8,100,90.4,100z M15.1,82.2L8,95c-0.3,0.6-0.3,1.3,0,1.9     c0.3,0.6,0.9,0.9,1.6,0.9h80.7c0.7,0,1.3-0.3,1.6-0.9c0.3-0.6,0.3-1.3,0-1.9l-7-12.7H15.1z"/></g><g><g><g><g><path d="M18.1,91.1c-0.3,0-0.6-0.1-0.8-0.3c-0.2-0.2-0.3-0.5-0.3-0.8c0-0.3,0.1-0.6,0.3-0.8        c0.4-0.4,1.2-0.4,1.6,0c0.2,0.2,0.3,0.5,0.3,0.8c0,0.3-0.1,0.6-0.3,0.8C18.6,91,18.4,91.1,18.1,91.1z"/></g><g><path d="M73.7,90c0-0.6,0.5-1.1,1.1-1.1l0,0c0.6,0,1.1,0.5,1.1,1.1l0,0c0,0.6-0.5,1.1-1.1,1.1l0,0        C74.2,91.1,73.7,90.6,73.7,90z M66.6,90c0-0.6,0.5-1.1,1.1-1.1l0,0c0.6,0,1.1,0.5,1.1,1.1l0,0c0,0.6-0.5,1.1-1.1,1.1l0,0        C67.1,91.1,66.6,90.6,66.6,90z M59.5,90c0-0.6,0.5-1.1,1.1-1.1l0,0c0.6,0,1.1,0.5,1.1,1.1l0,0c0,0.6-0.5,1.1-1.1,1.1l0,0        C60,91.1,59.5,90.6,59.5,90z M52.4,90c0-0.6,0.5-1.1,1.1-1.1l0,0c0.6,0,1.1,0.5,1.1,1.1l0,0c0,0.6-0.5,1.1-1.1,1.1l0,0        C52.9,91.1,52.4,90.6,52.4,90z M45.3,90c0-0.6,0.5-1.1,1.1-1.1l0,0c0.6,0,1.1,0.5,1.1,1.1l0,0c0,0.6-0.5,1.1-1.1,1.1l0,0        C45.8,91.1,45.3,90.6,45.3,90z M38.2,90c0-0.6,0.5-1.1,1.1-1.1l0,0c0.6,0,1.1,0.5,1.1,1.1l0,0c0,0.6-0.5,1.1-1.1,1.1l0,0        C38.7,91.1,38.2,90.6,38.2,90z M31.1,90c0-0.6,0.5-1.1,1.1-1.1l0,0c0.6,0,1.1,0.5,1.1,1.1l0,0c0,0.6-0.5,1.1-1.1,1.1l0,0        C31.6,91.1,31.1,90.6,31.1,90z M24,90c0-0.6,0.5-1.1,1.1-1.1l0,0c0.6,0,1.1,0.5,1.1,1.1l0,0c0,0.6-0.5,1.1-1.1,1.1l0,0        C24.5,91.1,24,90.6,24,90z"/></g><g><path d="M81.9,91.1c-0.3,0-0.6-0.1-0.8-0.3c-0.2-0.2-0.3-0.5-0.3-0.8c0-0.3,0.1-0.6,0.3-0.8        c0.4-0.4,1.2-0.4,1.6,0c0.2,0.2,0.3,0.5,0.3,0.8c0,0.3-0.1,0.6-0.3,0.8C82.5,91,82.2,91.1,81.9,91.1z"/></g></g></g></g></g></g><text x="0" y="115" fill="#000000" font-size="5px" font-weight="bold" font-family="'Helvetica Neue', Helvetica, Arial-Unicode, Arial, Sans-serif">Created by Andrei Yushchenko</text><text x="0" y="120" fill="#000000" font-size="5px" font-weight="bold" font-family="'Helvetica Neue', Helvetica, Arial-Unicode, Arial, Sans-serif">from the Noun Project</text></svg>