<svg xmlns="http://www.w3.org/2000/svg" data-name="Layer 1" viewBox="0 0 64 80" x="0px" y="0px"><path d="M62,21A12.014,12.014,0,0,0,50.073,9,11.482,11.482,0,0,0,29.687,7.523,11.5,11.5,0,0,0,11,16.5V19H9A7,7,0,0,0,9,33h5V43H11a1,1,0,0,0-.895,1.447l2,4A1,1,0,0,0,13,49H31v5.142A4,4,0,0,0,28.142,57H2v2H28.142a3.981,3.981,0,0,0,7.716,0H62V57H35.858A4,4,0,0,0,33,54.142V49H51a1,1,0,0,0,.9-.553l2-4A1,1,0,0,0,53,43H50V33A12.013,12.013,0,0,0,62,21ZM34,58a2,2,0,1,1-2-2A2,2,0,0,1,34,58ZM9,31A5,5,0,0,1,9,21h3a1,1,0,0,0,1-1V16.5A9.5,9.5,0,0,1,29.255,9.824a1,1,0,0,0,1.619-.285,9.486,9.486,0,0,1,17.573.794A1,1,0,0,0,49.39,11H50a10,10,0,0,1,0,20V24a3,3,0,0,0-3-3H17a3,3,0,0,0-3,3v7Zm39-7V43H16V24a1,1,0,0,1,1-1H47A1,1,0,0,1,48,24Zm2.382,23H13.618l-1-2H51.382Z"/><path d="M54,20h2a6.006,6.006,0,0,0-6-6v2A4,4,0,0,1,54,20Z"/><rect x="54" y="22" width="2" height="2"/><path d="M45,25H19a1,1,0,0,0-1,1V40a1,1,0,0,0,1,1H45a1,1,0,0,0,1-1V26A1,1,0,0,0,45,25ZM44,39H20V27H44Z"/><path d="M25.293,36.707l1.414-1.414L24.414,33l2.293-2.293-1.414-1.414-3,3a1,1,0,0,0,0,1.414Z"/><path d="M38.707,36.707l3-3a1,1,0,0,0,0-1.414l-3-3-1.414,1.414L39.586,33l-2.293,2.293Z"/><rect x="26.146" y="32" width="6.708" height="2" transform="translate(-13.209 44.628) rotate(-63.435)"/><text x="0" y="79" fill="#000000" font-size="5px" font-weight="bold" font-family="'Helvetica Neue', Helvetica, Arial-Unicode, Arial, Sans-serif">Created by dDara</text><text x="0" y="84" fill="#000000" font-size="5px" font-weight="bold" font-family="'Helvetica Neue', Helvetica, Arial-Unicode, Arial, Sans-serif">from the Noun Project</text></svg>