<svg xmlns="http://www.w3.org/2000/svg" xmlns:xlink="http://www.w3.org/1999/xlink" version="1.1" x="0px" y="0px" viewBox="0 0 100 125" enable-background="new 0 0 100 100" xml:space="preserve"><g><path fill="none" d="M14.014,46.323c0.122,0.122,0.25,0.183,0.371,0.161c0.059-0.009,0.111-0.039,0.16-0.083   c0.59,1.836,1.722,3.666,3.148,4.758c0.822,0.63,1.743,1.015,2.714,1.015c0.993,0,1.932-0.403,2.769-1.058   c1.401-1.096,2.512-2.902,3.094-4.715c0.048,0.044,0.101,0.074,0.16,0.083c0.104,0.019,0.213-0.023,0.32-0.114   c0.266-0.226,0.518-0.754,0.632-1.396c0.149-0.837,0.014-1.57-0.301-1.718c-0.022-0.011-0.046-0.019-0.071-0.022   c-0.097-0.017-0.199,0.019-0.298,0.097l-0.005,0.006c0-0.001,0-0.001,0-0.001c-0.001,0-0.002,0.001-0.003,0.002   c-0.001-0.006-0.001-0.012-0.001-0.018c-0.378-1.435-0.854-2.313-1.346-2.837c-0.096-0.052-0.194-0.098-0.304-0.129   c-0.013,0.211,0.229,0.533,0.254,0.846c-0.682-0.317-1.333-0.812-2.286-0.846c-0.223-0.008-0.464-0.007-0.711-0.001   c-2.297,0.821-4.824-0.108-4.824-0.108c-2.88-0.267-3.337,2.726-3.372,3.068c-0.001,0.008-0.002,0.017-0.002,0.025   c-0.001,0-0.001,0-0.001,0c-0.103-0.083-0.207-0.121-0.307-0.104c-0.044,0.008-0.085,0.026-0.123,0.053   c-0.089,0.064-0.16,0.185-0.212,0.34c-0.029,0.403-0.047,0.81-0.052,1.23c0.006,0.04,0.009,0.077,0.017,0.117   C13.542,45.575,13.767,46.076,14.014,46.323z"/><path fill="none" d="M73.502,46.542c0.121,0.121,0.248,0.181,0.367,0.16c0.059-0.01,0.11-0.039,0.158-0.083   c0.584,1.816,1.703,3.625,3.114,4.705c0.813,0.623,1.724,1.004,2.685,1.004c0.981,0,1.911-0.398,2.738-1.045   c1.386-1.085,2.483-2.871,3.06-4.664c0.048,0.044,0.101,0.073,0.158,0.083c0.104,0.018,0.211-0.024,0.317-0.113   c0.263-0.223,0.512-0.746,0.624-1.381c0.148-0.828,0.015-1.553-0.296-1.7c-0.021-0.01-0.046-0.018-0.07-0.022   c-0.097-0.016-0.197,0.019-0.295,0.097l-0.006,0.006c0-0.001-0.001-0.001-0.001-0.002c-0.001,0.001-0.002,0.002-0.003,0.002   c0-0.006,0-0.012-0.001-0.018c-0.374-1.419-0.845-2.289-1.331-2.806c-0.095-0.051-0.192-0.097-0.3-0.128   c-0.013,0.209,0.226,0.528,0.251,0.838c-0.674-0.314-1.319-0.802-2.261-0.838c-0.22-0.008-0.459-0.006-0.703,0   c-2.272,0.812-4.771-0.107-4.771-0.107c-2.849-0.265-3.301,2.695-3.336,3.034c-0.001,0.008-0.002,0.016-0.002,0.024   c0,0,0,0-0.001,0c-0.101-0.082-0.204-0.12-0.303-0.102c-0.044,0.007-0.084,0.025-0.121,0.052c-0.09,0.064-0.159,0.183-0.21,0.336   c-0.029,0.398-0.046,0.801-0.053,1.217c0.006,0.039,0.01,0.077,0.017,0.116C73.034,45.802,73.258,46.297,73.502,46.542z"/><path fill="none" d="M41.685,45.554c0.155,0.155,0.317,0.232,0.472,0.206c0.075-0.013,0.142-0.049,0.203-0.106   c0.751,2.335,2.189,4.661,4.003,6.05c1.046,0.801,2.217,1.29,3.452,1.29c1.262,0,2.458-0.513,3.52-1.344   c1.782-1.394,3.194-3.691,3.936-5.996c0.061,0.056,0.129,0.093,0.203,0.106c0.132,0.023,0.271-0.031,0.407-0.146   c0.339-0.287,0.658-0.958,0.804-1.774c0.189-1.064,0.019-1.998-0.381-2.186c-0.028-0.013-0.06-0.023-0.091-0.029   c-0.124-0.021-0.254,0.024-0.38,0.124l-0.007,0.008c0-0.001-0.001-0.001-0.001-0.002c-0.002,0.001-0.002,0.002-0.004,0.003   c0-0.008-0.001-0.015-0.002-0.023c-0.48-1.825-1.086-2.942-1.711-3.607c-0.121-0.065-0.247-0.125-0.386-0.164   c-0.016,0.269,0.291,0.678,0.323,1.076c-0.867-0.404-1.696-1.031-2.906-1.076c-0.284-0.011-0.591-0.008-0.904-0.002   c-2.922,1.044-6.134-0.137-6.134-0.137c-3.663-0.34-4.244,3.465-4.289,3.901c-0.001,0.011-0.002,0.021-0.002,0.031c0,0,0,0-0.001,0   c-0.13-0.105-0.263-0.154-0.39-0.132c-0.056,0.01-0.108,0.033-0.156,0.067c-0.115,0.082-0.205,0.236-0.271,0.432   c-0.036,0.513-0.059,1.031-0.067,1.565c0.008,0.05,0.012,0.099,0.021,0.149C41.083,44.603,41.371,45.24,41.685,45.554z"/><path d="M32.931,55.313c-1.32-1.24-2.57-1.352-2.972-1.445c-1.365-0.32-3.018-0.184-3.9-0.458   c-0.104,0.864-2.619,3.711-4.269,5.494l-0.715-2.755c0.538-0.316,0.654-1.017,0.654-1.597H19.02c0,0.575,0.116,1.269,0.642,1.589   l-0.702,2.763c-1.65-1.784-4.166-4.63-4.27-5.495c-0.881,0.275-2.535,0.139-3.899,0.459c-0.693,0.161-3.915,0.367-5.659,6.366   c-0.236,0.814-0.153,1.7,0.231,2.426c1.428,2.702,8.939,3.532,15.012,3.531c2.642,0.001,5.556-0.156,8.123-0.557   c-0.194-0.95-0.16-1.955,0.117-2.907C29.588,59.38,31.034,56.903,32.931,55.313z"/><path d="M13.348,47.024c0.643,1.728,1.659,3.406,2.917,4.635c0.711,0.696,1.5,1.246,2.341,1.58   c0.578,0.229,1.182,0.355,1.801,0.355c0.62,0,1.224-0.127,1.802-0.355c0.87-0.346,1.685-0.923,2.416-1.653   c1.227-1.225,2.218-2.877,2.848-4.576c0.484-0.142,0.993-1.05,1.199-2.209c0.225-1.258,0.012-2.355-0.473-2.538   c0.018-0.307,0.029-0.617,0.028-0.936c-0.012-4.559-2.685-7.209-6.899-7.492c-3.675-0.247-6.443,1.214-7.704,3.641   c-0.424,0.816-0.667,1.838-0.759,2.947c-0.142,0.578-0.225,1.178-0.225,1.799h0.013c0,0.005,0,0.01-0.001,0.015   c-0.009,0.001-0.018,0.001-0.028,0.003c-0.537,0.094-0.781,1.24-0.545,2.561C12.295,46.015,12.842,46.953,13.348,47.024z    M13.469,43.627c0.052-0.155,0.123-0.276,0.212-0.34c0.038-0.027,0.079-0.045,0.123-0.053c0.1-0.018,0.204,0.021,0.307,0.104   c0,0,0,0,0.001,0c0-0.008,0.001-0.017,0.002-0.025c0.035-0.342,0.492-3.335,3.372-3.068c0,0,2.526,0.929,4.824,0.108   c0.247-0.005,0.488-0.007,0.711,0.001c0.952,0.035,1.604,0.529,2.286,0.846c-0.025-0.313-0.267-0.635-0.254-0.846   c0.109,0.031,0.208,0.077,0.304,0.129c0.492,0.523,0.968,1.402,1.346,2.837c0,0.006,0,0.012,0.001,0.018   c0,0,0.002-0.001,0.003-0.002c0,0,0,0.001,0,0.002l0.005-0.006c0.099-0.078,0.202-0.114,0.298-0.097   c0.025,0.004,0.049,0.012,0.071,0.022c0.315,0.147,0.45,0.881,0.301,1.718c-0.114,0.642-0.366,1.17-0.632,1.396   c-0.107,0.09-0.216,0.132-0.32,0.114c-0.059-0.009-0.112-0.039-0.16-0.083c-0.583,1.813-1.693,3.619-3.094,4.715   c-0.836,0.654-1.775,1.058-2.769,1.058c-0.971,0-1.892-0.385-2.714-1.015c-1.427-1.092-2.559-2.922-3.148-4.758   c-0.049,0.044-0.101,0.074-0.16,0.083c-0.121,0.021-0.249-0.039-0.371-0.161c-0.248-0.248-0.473-0.748-0.581-1.349   c-0.007-0.04-0.011-0.078-0.017-0.117C13.422,44.437,13.44,44.03,13.469,43.627z"/><path fill="#000000" d="M94.87,60.301c-1.725-5.934-4.911-6.138-5.598-6.298c-1.35-0.315-2.985-0.182-3.856-0.454   c-0.153,1.277-2.611,2.294-5.622,2.294s-5.469-1.017-5.621-2.294c-0.873,0.274-2.508,0.139-3.857,0.454   c-0.427,0.1-1.823,0.218-3.232,1.724c1.67,1.593,2.959,3.933,3.851,7.001c0.266,0.916,0.307,1.88,0.138,2.798   c2.697,0.48,5.87,0.667,8.723,0.666c6.005,0.002,13.434-0.82,14.846-3.492C95.021,61.981,95.103,61.105,94.87,60.301z"/><path d="M72.844,47.235c0.636,1.709,1.642,3.37,2.885,4.583c0.704,0.688,1.484,1.232,2.316,1.563   c0.571,0.226,1.168,0.353,1.781,0.353s1.209-0.127,1.781-0.353c0.861-0.342,1.667-0.913,2.39-1.636   c1.213-1.21,2.193-2.845,2.816-4.525c0.479-0.141,0.981-1.039,1.186-2.185c0.223-1.244,0.013-2.329-0.467-2.51   c0.018-0.304,0.028-0.611,0.027-0.926c-0.011-4.509-2.654-7.486-6.823-7.766c-3.634-0.244-6.372,1.2-7.619,3.601   c-0.42,0.807-0.659,2.173-0.75,3.271c-0.141,0.571-0.223,1.165-0.223,1.779h0.014c-0.001,0.005-0.002,0.009-0.002,0.014   c-0.009,0.001-0.018,0.001-0.026,0.003c-0.531,0.093-0.773,1.227-0.541,2.533C71.804,46.237,72.345,47.165,72.844,47.235z    M72.965,43.875c0.051-0.153,0.12-0.272,0.21-0.336c0.037-0.027,0.077-0.045,0.121-0.052c0.099-0.018,0.202,0.021,0.303,0.102   c0.001,0,0.001,0,0.001,0c0-0.008,0.001-0.016,0.002-0.024c0.035-0.339,0.487-3.299,3.336-3.034c0,0,2.498,0.918,4.771,0.107   c0.244-0.005,0.483-0.007,0.703,0c0.941,0.036,1.587,0.523,2.261,0.838c-0.025-0.31-0.264-0.628-0.251-0.838   c0.107,0.031,0.205,0.077,0.3,0.128c0.486,0.518,0.957,1.387,1.331,2.806c0.001,0.006,0.001,0.012,0.001,0.018   c0.001,0,0.002-0.001,0.003-0.002c0,0.001,0.001,0.001,0.001,0.002l0.006-0.006c0.098-0.078,0.198-0.113,0.295-0.097   c0.024,0.004,0.049,0.013,0.07,0.022c0.311,0.146,0.444,0.872,0.296,1.7c-0.112,0.635-0.361,1.158-0.624,1.381   c-0.106,0.089-0.214,0.131-0.317,0.113c-0.058-0.01-0.11-0.039-0.158-0.083c-0.576,1.793-1.674,3.579-3.06,4.664   c-0.827,0.646-1.757,1.045-2.738,1.045c-0.961,0-1.871-0.381-2.685-1.004c-1.411-1.08-2.53-2.889-3.114-4.705   c-0.048,0.044-0.1,0.073-0.158,0.083c-0.119,0.021-0.246-0.04-0.367-0.16c-0.244-0.245-0.468-0.74-0.573-1.334   c-0.007-0.039-0.011-0.077-0.017-0.116C72.919,44.677,72.936,44.274,72.965,43.875z"/><path d="M40.838,46.445c0.817,2.197,2.11,4.333,3.709,5.893c0.905,0.886,1.907,1.585,2.977,2.01   c0.736,0.291,1.502,0.453,2.291,0.453s1.555-0.162,2.291-0.453c1.106-0.439,2.144-1.173,3.072-2.102   c1.56-1.558,2.82-3.659,3.621-5.819c0.616-0.182,1.263-1.335,1.525-2.809c0.285-1.599,0.016-2.994-0.602-3.227   c0.022-0.39,0.037-0.785,0.036-1.19c-0.015-5.797-3.413-9.625-8.773-9.984c-4.671-0.313-8.192,1.542-9.795,4.628   c-0.54,1.039-0.848,2.794-0.966,4.206c-0.18,0.734-0.286,1.498-0.286,2.288h0.018c0,0.006-0.001,0.012-0.002,0.018   c-0.011,0.002-0.023,0.002-0.034,0.004c-0.684,0.119-0.995,1.577-0.695,3.256C39.5,45.162,40.196,46.354,40.838,46.445z    M40.993,42.125c0.066-0.196,0.156-0.35,0.271-0.432c0.048-0.035,0.1-0.058,0.156-0.067c0.127-0.022,0.26,0.027,0.39,0.132   c0,0,0,0,0,0c0.001-0.01,0.002-0.021,0.003-0.031c0.045-0.436,0.626-4.242,4.289-3.901c0,0,3.211,1.181,6.134,0.137   c0.313-0.006,0.62-0.009,0.904,0.002c1.21,0.045,2.039,0.672,2.906,1.076c-0.032-0.398-0.339-0.808-0.323-1.076   c0.139,0.04,0.265,0.099,0.386,0.164c0.625,0.666,1.23,1.782,1.711,3.607c0.001,0.008,0.002,0.015,0.002,0.023   c0.002,0,0.002-0.002,0.004-0.003c0,0.001,0.001,0.001,0.001,0.002l0.007-0.008c0.126-0.1,0.256-0.145,0.38-0.124   c0.031,0.006,0.063,0.016,0.091,0.029c0.399,0.188,0.57,1.121,0.381,2.186c-0.146,0.816-0.465,1.487-0.804,1.774   c-0.137,0.115-0.275,0.169-0.407,0.146c-0.074-0.013-0.143-0.05-0.203-0.106c-0.741,2.305-2.153,4.602-3.936,5.996   c-1.063,0.831-2.258,1.344-3.52,1.344c-1.235,0-2.406-0.489-3.452-1.29c-1.814-1.389-3.252-3.715-4.003-6.05   c-0.062,0.057-0.128,0.093-0.203,0.106c-0.154,0.026-0.316-0.05-0.472-0.206c-0.314-0.314-0.602-0.952-0.738-1.715   c-0.009-0.051-0.014-0.1-0.021-0.149C40.934,43.156,40.957,42.638,40.993,42.125z"/><path fill="#000000" d="M61.961,55.147c-1.735-0.406-3.838-0.233-4.959-0.584c-0.196,1.643-3.358,2.948-7.228,2.948   c-3.871,0-7.031-1.306-7.229-2.948c-1.121,0.352-3.223,0.178-4.959,0.584c-0.881,0.206-4.978,0.468-7.195,8.096   c-0.301,1.036-0.195,2.162,0.295,3.085c1.814,3.432,11.351,4.489,19.067,4.489c0.007,0,0.013,0,0.02,0c0.006,0,0.014,0,0.02,0   c7.717,0,17.253-1.058,19.067-4.489c0.49-0.923,0.596-2.05,0.296-3.085C66.939,55.615,62.843,55.354,61.961,55.147z"/></g><text x="0" y="115" fill="#000000" font-size="5px" font-weight="bold" font-family="'Helvetica Neue', Helvetica, Arial-Unicode, Arial, Sans-serif">Created by Wilson Joseph</text><text x="0" y="120" fill="#000000" font-size="5px" font-weight="bold" font-family="'Helvetica Neue', Helvetica, Arial-Unicode, Arial, Sans-serif">from the Noun Project</text></svg>