<svg xmlns="http://www.w3.org/2000/svg" xmlns:xlink="http://www.w3.org/1999/xlink" version="1.1" x="0px" y="0px" viewBox="0 0 64 80" enable-background="new 0 0 64 64" xml:space="preserve"><g><path d="M4.001,30.996h2.987c0,0.003-0.001,0.007-0.001,0.01v16.001c0,3,1.526,5.796,4,7.46V56C10.44,56.007,10,56.449,10,56.997   v2.007c-0.553,0-1,0.447-1,1V63c0,0.553,0.447,1,1,1s1-0.447,1-1v-1.996h10V63c0,0.553,0.447,1,1,1s1-0.447,1-1v-2.996   c0-0.553-0.447-1-1-1v-2.007c0-0.553-0.447-1-1-1h-0.005v-1.681c1.073-0.774,2.054-1.785,2.909-3.042   c0.001-0.001,0.002-0.001,0.002-0.002l6.385-9.403c0.001-0.001,0.001-0.002,0.001-0.002c0.978-1.438,0.93-3.044-0.121-4.095   c-1.15-1.15-3.003-1.16-4.218-0.023c-0.001,0.001-0.001,0.003-0.003,0.004c-0.001,0.001-0.003,0.001-0.005,0.003l-0.958,0.914   v-7.674h14.025v7.674l-0.958-0.914c-0.002-0.002-0.004-0.002-0.005-0.003c-0.002-0.001-0.002-0.003-0.003-0.004   c-1.216-1.137-3.068-1.127-4.218,0.023c-1.051,1.051-1.099,2.657-0.121,4.095c0,0,0,0.001,0.001,0.002l6.385,9.403   c0,0.001,0.001,0.001,0.002,0.002c0.855,1.257,1.836,2.268,2.909,3.042v1.681h-0.006c-0.553,0-1,0.447-1,1v2.01   c-0.546,0.008-0.986,0.449-0.986,0.997V63c0,0.553,0.447,1,1,1s1-0.447,1-1v-1.996h10V63c0,0.553,0.447,1,1,1s1-0.447,1-1v-2.996   c0-0.553-0.447-1-1-1h-0.014v-2.007c0-0.548-0.44-0.989-0.986-0.997v-1.533c2.474-1.664,4-4.46,4-7.46V31.006   c0-0.003-0.001-0.007-0.001-0.01h2.987c1.654,0,3-1.346,3-3V3c0-1.654-1.346-3-3-3H4.001c-1.654,0-3,1.346-3,3v24.996   C1.001,29.65,2.347,30.996,4.001,30.996z M12,59.004v-1.007h7.99c0.002,0,0.003,0.001,0.005,0.001s0.003-0.001,0.005-0.001l0,0   v1.007H12z M28.757,39.187c0.533,0.533-0.006,1.392-0.119,1.559l0,0l-0.001,0.001l-6.385,9.403v0.001   c-0.826,1.211-1.767,2.157-2.795,2.814c-0.03,0.02-0.047,0.05-0.074,0.071c-0.055,0.044-0.104,0.089-0.148,0.143   c-0.04,0.05-0.073,0.1-0.104,0.154c-0.03,0.056-0.055,0.111-0.075,0.173c-0.021,0.065-0.032,0.13-0.04,0.199   c-0.004,0.035-0.021,0.066-0.021,0.103v2.189h-6.008v-2.061c0-0.043-0.02-0.08-0.024-0.121c-0.009-0.069-0.018-0.135-0.04-0.2   c-0.021-0.063-0.052-0.116-0.084-0.173c-0.031-0.054-0.063-0.104-0.104-0.152c-0.047-0.054-0.101-0.097-0.157-0.14   c-0.032-0.024-0.054-0.059-0.09-0.079c-2.159-1.25-3.501-3.574-3.501-6.064V31.006c0-0.551,0.448-1,1-1s1,0.448,1,1v7.001   c0,0.553,0.447,1,1,1s1-0.447,1-1v-10c0-0.551,0.448-1,1-1s1,0.449,1,1v10c0,0.553,0.447,1,1,1s1-0.447,1-1V26.06   C16.988,26.038,17,26.019,17,25.997v-1.052c0.034-0.521,0.458-0.938,0.987-0.938c0.552,0,1,0.449,1,1v13c0,0.553,0.447,1,1,1   s1-0.447,1-1v-10c0-0.551,0.448-1,1-1s1,0.449,1,1v13c0,0.049,0.021,0.091,0.027,0.137c0.012,0.079,0.018,0.158,0.048,0.234   s0.081,0.138,0.128,0.204c0.027,0.037,0.04,0.081,0.073,0.115c0.003,0.003,0.007,0.004,0.01,0.007   c0.092,0.095,0.201,0.172,0.325,0.225c0.124,0.052,0.257,0.078,0.389,0.078c0.128,0,0.256-0.026,0.377-0.076   c0.063-0.026,0.114-0.071,0.171-0.109c0.048-0.031,0.101-0.051,0.143-0.091l2.643-2.521C27.745,38.814,28.376,38.805,28.757,39.187   z M15,24.881c-0.002,0.039-0.012,0.076-0.012,0.115H14v-1h1V24.881z M43,24.997H20.999v-1H43V24.997z M24.987,28.996v-0.989   c0-0.356-0.073-0.693-0.188-1.01h14.4c-0.114,0.317-0.188,0.654-0.188,1.01v0.989H24.987z M43.999,59.004v-1.007H44   c0.002,0,0.003,0.001,0.005,0.001s0.003-0.001,0.005-0.001h7.989v1.007H43.999z M51.512,53.071c-0.036,0.021-0.058,0.055-0.09,0.08   c-0.057,0.042-0.11,0.085-0.157,0.139c-0.041,0.048-0.072,0.099-0.104,0.153c-0.032,0.056-0.063,0.109-0.084,0.172   c-0.022,0.065-0.031,0.131-0.04,0.2c-0.005,0.042-0.024,0.078-0.024,0.121v2.061h-6.008v-2.189c0-0.036-0.017-0.067-0.021-0.104   c-0.008-0.068-0.02-0.133-0.04-0.198c-0.02-0.062-0.045-0.117-0.075-0.173c-0.03-0.055-0.063-0.104-0.104-0.154   c-0.045-0.054-0.094-0.099-0.148-0.143c-0.027-0.021-0.044-0.052-0.074-0.071c-1.028-0.657-1.969-1.604-2.795-2.814v-0.001   l-6.385-9.403l-0.001-0.001l0,0c-0.113-0.167-0.652-1.025-0.119-1.559c0.382-0.382,1.013-0.372,1.437,0.022l2.643,2.521   c0.043,0.041,0.096,0.06,0.143,0.091c0.057,0.038,0.107,0.084,0.171,0.109c0.121,0.05,0.249,0.076,0.377,0.076   c0.132,0,0.265-0.026,0.389-0.078c0.124-0.053,0.233-0.13,0.325-0.225c0.003-0.003,0.007-0.004,0.01-0.007   c0.032-0.034,0.046-0.078,0.072-0.115c0.048-0.065,0.099-0.128,0.129-0.205c0.03-0.074,0.036-0.153,0.048-0.232   c0.007-0.047,0.027-0.089,0.027-0.138v-13c0-0.551,0.448-1,1-1s1,0.449,1,1v10c0,0.553,0.447,1,1,1s1-0.447,1-1v-13   c0-0.551,0.448-1,1-1c0.529,0,0.953,0.417,0.987,0.938v1.052c0,0.022,0.012,0.041,0.013,0.063v11.947c0,0.553,0.447,1,1,1   s1-0.447,1-1v-10c0-0.551,0.448-1,1-1s1,0.449,1,1v10c0,0.553,0.447,1,1,1s1-0.447,1-1v-7.001c0-0.551,0.448-1,1-1s1,0.448,1,1   v16.001C55.013,49.497,53.671,51.821,51.512,53.071z M50,24.997h-0.988c0-0.04-0.01-0.076-0.012-0.115v-0.884h1V24.997z M3.001,3   c0-0.551,0.448-1,1-1h55.998c0.552,0,1,0.449,1,1v24.996c0,0.551-0.448,1-1,1h-3.775c-0.549-0.603-1.333-0.989-2.211-0.989   c-0.353,0-0.686,0.072-1,0.184v-0.184c0-0.889-0.396-1.681-1.013-2.23v-2.779c0-0.552-0.447-1-1-1h-3   c-0.281,0-0.533,0.117-0.715,0.304c-0.388-0.184-0.815-0.294-1.272-0.294c-0.464,0-0.898,0.115-1.291,0.304   c-0.183-0.191-0.437-0.313-0.722-0.313H19.999c-0.285,0-0.539,0.122-0.721,0.313c-0.393-0.189-0.827-0.304-1.291-0.304   c-0.457,0-0.885,0.11-1.272,0.294c-0.182-0.187-0.434-0.304-0.715-0.304h-3c-0.553,0-1,0.448-1,1v2.779   c-0.616,0.55-1.013,1.341-1.013,2.23v0.184c-0.314-0.112-0.647-0.184-1-0.184c-0.878,0-1.662,0.386-2.211,0.989H4.001   c-0.552,0-1-0.449-1-1V3z"/><path d="M6,14.999h3c0.553,0,1-0.448,1-1v-3c0-0.552-0.447-1-1-1H6c-0.553,0-1,0.448-1,1v3C5,14.551,5.447,14.999,6,14.999z    M7,11.999h1v1H7V11.999z"/><path d="M13,14.999h3c0.553,0,1-0.448,1-1v-3c0-0.552-0.447-1-1-1h-3c-0.553,0-1,0.448-1,1v3C12,14.551,12.447,14.999,13,14.999z    M14,11.999h1v1h-1V11.999z"/><path d="M20,14.999h3c0.553,0,1-0.448,1-1v-3c0-0.552-0.447-1-1-1h-3c-0.553,0-1,0.448-1,1v3C19,14.551,19.447,14.999,20,14.999z    M21,11.999h1v1h-1V11.999z"/><path d="M27,14.999h3c0.553,0,1-0.448,1-1v-3c0-0.552-0.447-1-1-1h-3c-0.553,0-1,0.448-1,1v3C26,14.551,26.447,14.999,27,14.999z    M28,11.999h1v1h-1V11.999z"/><path d="M34,14.999h3c0.553,0,1-0.448,1-1v-3c0-0.552-0.447-1-1-1h-3c-0.553,0-1,0.448-1,1v3C33,14.551,33.447,14.999,34,14.999z    M35,11.999h1v1h-1V11.999z"/><path d="M41,14.999h3c0.553,0,1-0.448,1-1v-3c0-0.552-0.447-1-1-1h-3c-0.553,0-1,0.448-1,1v3C40,14.551,40.447,14.999,41,14.999z    M42,11.999h1v1h-1V11.999z"/><path d="M48,14.999h3c0.553,0,1-0.448,1-1v-3c0-0.552-0.447-1-1-1h-3c-0.553,0-1,0.448-1,1v3C47,14.551,47.447,14.999,48,14.999z    M49,11.999h1v1h-1V11.999z"/><path d="M6,20.999h10c0.553,0,1-0.448,1-1v-3c0-0.552-0.447-1-1-1H6c-0.553,0-1,0.448-1,1v3C5,20.551,5.447,20.999,6,20.999z    M7,17.999h8v1H7V17.999z"/><path d="M20,20.999h3c0.553,0,1-0.448,1-1v-3c0-0.552-0.447-1-1-1h-3c-0.553,0-1,0.448-1,1v3C19,20.551,19.447,20.999,20,20.999z    M21,17.999h1v1h-1V17.999z"/><path d="M27,20.999h3c0.553,0,1-0.448,1-1v-3c0-0.552-0.447-1-1-1h-3c-0.553,0-1,0.448-1,1v3C26,20.551,26.447,20.999,27,20.999z    M28,17.999h1v1h-1V17.999z"/><path d="M34,20.999h3c0.553,0,1-0.448,1-1v-3c0-0.552-0.447-1-1-1h-3c-0.553,0-1,0.448-1,1v3C33,20.551,33.447,20.999,34,20.999z    M35,17.999h1v1h-1V17.999z"/><path d="M41,20.999h3c0.553,0,1-0.448,1-1v-3c0-0.552-0.447-1-1-1h-3c-0.553,0-1,0.448-1,1v3C40,20.551,40.447,20.999,41,20.999z    M42,17.999h1v1h-1V17.999z"/><path d="M48,20.999h3c0.553,0,1-0.448,1-1v-3c0-0.552-0.447-1-1-1h-3c-0.553,0-1,0.448-1,1v3C47,20.551,47.447,20.999,48,20.999z    M49,17.999h1v1h-1V17.999z"/><path d="M55,20.999h3c0.553,0,1-0.448,1-1v-9c0-0.552-0.447-1-1-1h-3c-0.553,0-1,0.448-1,1v9C54,20.551,54.447,20.999,55,20.999z    M56,11.999h1v7h-1V11.999z"/><path d="M6,26.997h3c0.553,0,1-0.448,1-1v-3c0-0.552-0.447-1-1-1H6c-0.553,0-1,0.448-1,1v3C5,26.549,5.447,26.997,6,26.997z    M7,23.997h1v1H7V23.997z"/><path d="M55,26.997h3c0.553,0,1-0.448,1-1v-3c0-0.552-0.447-1-1-1h-3c-0.553,0-1,0.448-1,1v3C54,26.549,54.447,26.997,55,26.997z    M56,23.997h1v1h-1V23.997z"/><path d="M7.5,9C8.879,9,10,7.878,10,6.5S8.879,4,7.5,4S5,5.121,5,6.5S6.121,9,7.5,9z M7.5,6C7.775,6,8,6.224,8,6.5S7.775,7,7.5,7   S7,6.775,7,6.5S7.225,6,7.5,6z"/><path d="M14.5,9C15.879,9,17,7.878,17,6.5S15.879,4,14.5,4S12,5.121,12,6.5S13.121,9,14.5,9z M14.5,6C14.775,6,15,6.224,15,6.5   S14.775,7,14.5,7S14,6.775,14,6.5S14.225,6,14.5,6z"/><path d="M21.5,9C22.879,9,24,7.878,24,6.5S22.879,4,21.5,4S19,5.121,19,6.5S20.121,9,21.5,9z M21.5,6C21.775,6,22,6.224,22,6.5   S21.775,7,21.5,7S21,6.775,21,6.5S21.225,6,21.5,6z"/><path d="M28.5,9C29.879,9,31,7.878,31,6.5S29.879,4,28.5,4S26,5.121,26,6.5S27.121,9,28.5,9z M28.5,6C28.775,6,29,6.224,29,6.5   S28.775,7,28.5,7S28,6.775,28,6.5S28.225,6,28.5,6z"/><path d="M35.5,9C36.879,9,38,7.878,38,6.5S36.879,4,35.5,4S33,5.121,33,6.5S34.121,9,35.5,9z M35.5,6C35.775,6,36,6.224,36,6.5   S35.775,7,35.5,7S35,6.775,35,6.5S35.225,6,35.5,6z"/><path d="M42.5,9C43.879,9,45,7.878,45,6.5S43.879,4,42.5,4S40,5.121,40,6.5S41.121,9,42.5,9z M42.5,6C42.775,6,43,6.224,43,6.5   S42.775,7,42.5,7S42,6.775,42,6.5S42.225,6,42.5,6z"/><path d="M49.5,9C50.879,9,52,7.878,52,6.5S50.879,4,49.5,4S47,5.121,47,6.5S48.121,9,49.5,9z M49.5,6C49.775,6,50,6.224,50,6.5   S49.775,7,49.5,7S49,6.775,49,6.5S49.225,6,49.5,6z"/><path d="M56.5,9C57.879,9,59,7.878,59,6.5S57.879,4,56.5,4S54,5.121,54,6.5S55.121,9,56.5,9z M56.5,6C56.775,6,57,6.224,57,6.5   S56.775,7,56.5,7S56,6.775,56,6.5S56.225,6,56.5,6z"/></g><text x="0" y="79" fill="#000000" font-size="5px" font-weight="bold" font-family="'Helvetica Neue', Helvetica, Arial-Unicode, Arial, Sans-serif">Created by lastspark</text><text x="0" y="84" fill="#000000" font-size="5px" font-weight="bold" font-family="'Helvetica Neue', Helvetica, Arial-Unicode, Arial, Sans-serif">from the Noun Project</text></svg>