<svg xmlns="http://www.w3.org/2000/svg" xmlns:xlink="http://www.w3.org/1999/xlink" version="1.1" x="0px" y="0px" viewBox="0 0 100 125" style="enable-background:new 0 0 100 100;" xml:space="preserve"><symbol viewBox="-26.685 -17.288 43.333 36.197"><path style="" d="M2.649,9.742c0-4.234-3.432-7.667-7.667-7.667   s-7.667,3.432-7.667,7.667s3.432,7.667,7.667,7.667S2.649,13.976,2.649,9.742z" fill="none" stroke="#000000" stroke-width="3" stroke-miterlimit="10"/><path style="" d="   M-20.851-15.258l3.474,9.888c0.515,1.465,1.898,2.445,3.451,2.445H4.203c1.563,0,2.953-0.993,3.46-2.471l3.153-9.195" fill="none" stroke="#000000" stroke-width="3" stroke-linecap="round" stroke-linejoin="round" stroke-miterlimit="10"/><g><line style="" x1="-12.351" y1="-10.925" x2="-13.685" y2="-15.258" fill="none" stroke="#000000" stroke-width="3" stroke-linecap="round" stroke-linejoin="round" stroke-miterlimit="10"/><line style="" x1="2.315" y1="-10.925" x2="3.649" y2="-15.258" fill="none" stroke="#000000" stroke-width="3" stroke-linecap="round" stroke-linejoin="round" stroke-miterlimit="10"/></g><polygon style="" points="16.649,-15.061 -26.685,-15.061 -26.685,-17.288 16.649,-17.288  " fill="#F2F2F2"/></symbol><g style="" display="none"><rect x="-497" y="-17" style="" width="1222" height="1226" display="inline" fill="#A5C6A3" stroke="#000000" stroke-width="3" stroke-miterlimit="3"/></g><g><path style="" d="M85.235,10.863H44.205c-2.974,0-5.393,2.42-5.393,5.393v27.437c0,2.974,2.42,5.393,5.393,5.393h5.521   l7.289,8.099c1.614-1.871,4.192-4.813,6.637-7.411l0.647-0.688h20.935c2.974,0,5.393-2.42,5.393-5.393V16.257   C90.628,13.283,88.208,10.863,85.235,10.863z" fill="none"/><path style="" d="M19.56,52.374c-2.235,0-4.054,1.819-4.054,4.054v4.184c0,2.235,1.819,4.054,4.054,4.054h2.065   c2.235,0,4.054-1.819,4.054-4.054v-4.184c0-2.235-1.819-4.054-4.054-4.054H19.56z" fill="none"/><path d="M85.235,6.492H44.205c-5.385,0-9.765,4.38-9.765,9.765v27.437c0,5.385,4.38,9.765,9.765,9.765h3.575l9.332,10.37   l1.617-1.92c0.041-0.047,3.798-4.504,7.464-8.45h19.042c5.385,0,9.765-4.38,9.765-9.765V16.257C95,10.872,90.62,6.492,85.235,6.492   z M90.628,43.694c0,2.974-2.42,5.393-5.393,5.393H64.3l-0.647,0.688c-2.445,2.597-5.023,5.54-6.637,7.411l-7.289-8.099h-5.521   c-2.974,0-5.393-2.42-5.393-5.393V16.257c0-2.974,2.42-5.393,5.393-5.393h41.029c2.974,0,5.393,2.42,5.393,5.393V43.694z"/><path d="M19.56,48.002c-4.634,0-8.426,3.792-8.426,8.426v4.184c0,4.634,3.792,8.426,8.426,8.426h2.065   c4.634,0,8.426-3.792,8.426-8.426v-4.184c0-4.634-3.792-8.426-8.426-8.426H19.56z M25.68,56.428v4.184   c0,2.235-1.819,4.054-4.054,4.054H19.56c-2.235,0-4.054-1.819-4.054-4.054v-4.184c0-2.235,1.819-4.054,4.054-4.054h2.065   C23.861,52.374,25.68,54.193,25.68,56.428z"/><polygon points="31.814,86.058 32.146,86.058 31.814,85.991  "/><path d="M5.386,93.508h51.883h9.395v-4.372h-9.395h-1.435l1.196-3.079l6.767-17.427H36.608l-3.07,8.499   c-2.012-2.344-4.988-3.841-8.301-3.841h-9.288C9.927,73.288,5,78.216,5,84.237v1.82h4.372v-1.82c0-3.627,2.95-6.577,6.577-6.577   h9.288c2.669,0,4.967,1.601,5.997,3.89H20.506v4.372h10.961h3.544l4.668-12.92H57.41l-6.266,16.134h-3.561H5.386V93.508z"/></g><text x="0" y="115" fill="#000000" font-size="5px" font-weight="bold" font-family="'Helvetica Neue', Helvetica, Arial-Unicode, Arial, Sans-serif">Created by Oksana Latysheva</text><text x="0" y="120" fill="#000000" font-size="5px" font-weight="bold" font-family="'Helvetica Neue', Helvetica, Arial-Unicode, Arial, Sans-serif">from the Noun Project</text></svg>